<?xml version="1.0" encoding="utf-8"?>
<!-- Generator: Adobe Illustrator 23.0.2, SVG Export Plug-In . SVG Version: 6.00 Build 0)  -->
<svg version="1.1" id="Layer_1" xmlns="http://www.w3.org/2000/svg" xmlns:xlink="http://www.w3.org/1999/xlink" x="0px" y="0px"
	 viewBox="0 0 141.7 141.7" style="enable-background:new 0 0 141.7 141.7;" xml:space="preserve">
<style type="text/css">
	.st0{opacity:0.1;fill:url(#SVGID_1_);enable-background:new    ;}
	.st1{opacity:0.4;fill:#1B1C63;enable-background:new    ;}
	.st2{fill:#DCE7F5;}
	.st3{fill:#A5BBEF;}
	.st4{fill:#819DF0;}
	.st5{fill:#1A2D66;}
	.st6{fill:#A0AFD5;}
	.st7{opacity:0.4;fill:#819DF0;enable-background:new    ;}
	.st8{fill:#7E87EC;}
	.st9{fill:#313385;}
	.st10{opacity:0.1;clip-path:url(#SVGID_3_);}
	.st11{fill:#CDD5EA;}
	.st12{fill:#2C2D6F;}
	.st13{opacity:0.5;fill:#A0AFD5;enable-background:new    ;}
	.st14{opacity:0.2;fill:#EFF6FC;enable-background:new    ;}
	.st15{enable-background:new    ;}
	.st16{fill:#40AB82;}
	.st17{fill:#DCDCDC;}
	.st18{fill:#C5C5C5;}
	.st19{fill:#399975;}
	.st20{fill:#286A51;}
	.st21{fill:#898989;}
	.st22{fill:#C3C3C3;}
	.st23{fill:#26674F;}
	.st24{fill:#24DFE8;}
	.st25{fill:#38B9E7;}
	.st26{fill:#785CE5;}
	.st27{fill:#7B72E9;}
	.st28{fill:#FFFFFF;}
</style>
<linearGradient id="SVGID_1_" gradientUnits="userSpaceOnUse" x1="12.4487" y1="70.9579" x2="125.05" y2="70.9579">
	<stop  offset="0" style="stop-color:#7546E2"/>
	<stop  offset="1" style="stop-color:#24DFE8"/>
</linearGradient>
<path class="st0" d="M19.1,118c2,3.8,4.4,7.4,8,9.7c4.4,3,10.1,3.3,15.4,3.2c10.1-0.3,20.2-1.9,29.9-4.8c4.1-1.2,8-2.7,11.7-4.8
	c9.2-5.2,16.3-13.9,19.2-24c2.7-9.1,2.2-19.1,5.5-27.9c2.4-6.3,6.7-11.7,9.9-17.6c1.6-3,3.1-6,4.2-9.2c1-2.7,1.7-5.5,1.7-8.5
	c0.6-2.7,0.6-5.4,0-8.1c-1.5-6-6.8-10.6-12.6-12.7S100,11,93.8,11c-9.1,0.1-18.6,0.7-27.1,4.2c-3.9,1.7-7.6,3.9-11.1,6.3
	C42.1,30.9,30.5,43,22.1,57.2c-2.1,3.6-4.1,7.3-5.5,11.1C10.3,84.2,11.2,102.8,19.1,118z"/>
<g>
	<path class="st1" d="M15.3,94.9l61.6,35.5c1.5,0.7,3.9,0.7,5.5-0.2l16.5-9.5l23.9-13.8c1.6-1,1.7-2.3,0.4-3.2L61.5,68.2
		c-1.5-0.7-3.9-0.7-5.5,0.2L32.1,82.2l-16.5,9.5C14,92.7,13.9,94.1,15.3,94.9z"/>
	<g>
		<g>
			<path class="st2" d="M124,100.2l1-0.5c0.5-0.2,0.9-1,0.9-2.2V51.1c0-2.7-0.9-3.9-2.6-4.9L61.7,10.7c-0.6-0.4-1.1-0.5-1.6-0.4l0,0
				l0,0c-0.1,0-1.1,0.6-1.1,0.6l0,0c0.4-0.1,1,0,1.6,0.4l61.5,35.5c1.7,1,2.6,2.3,2.6,4.9v46.4C124.7,99.2,124.4,99.8,124,100.2z"/>
			<path class="st2" d="M123.7,100.3L123.7,100.3L123.7,100.3z"/>
			<g>
				<g>
					<path class="st3" d="M81.4,129v-2.6c-1.7,1-4.2,1.1-5.5,0.2L14.3,91.2c-0.6-0.2-1-0.7-1-1.2l0,0v2.5l0,0c0,0.5,0.4,1,1,1.3
						l61.6,35.5C77.3,130,79.8,130,81.4,129L81.4,129z"/>
					<path class="st4" d="M81.5,126.4v2.6l40.3-23.3c0.9-0.4,1.2-1,1.3-1.6l0,0l0,0c0-0.1,0-0.1,0-0.2v-2.4l0,0
						c-0.1,0.5-0.5,1.1-1.3,1.6l-40.4,23.3C81.4,126.4,81.5,126.4,81.5,126.4z"/>
				</g>
				<g>
					<path class="st2" d="M97.9,116.9l-16.5,9.5c-1.7,1-4.2,1.1-5.5,0.2L14.3,91.2C12.8,90.3,13,89,14.6,88l16.5-9.5L97.9,116.9z"/>
					<path class="st2" d="M31.1,78.5L55,64.7c1.7-1,4.2-1.1,5.5-0.2l61.6,35.5c1.5,0.9,1.2,2.2-0.4,3.2L97.8,117L31.1,78.5z"/>
					<g>
						<g>
							<path class="st5" d="M108.1,102.8l3-1.7c0.3-0.1,0.5-0.1,0.7,0l3.1,1.7c0.2,0,0.2,0.2,0,0.4l-3,1.7c-0.3,0.1-0.5,0.1-0.7,0
								l-3.1-1.7C107.9,103,107.9,102.9,108.1,102.8z"/>
							<path class="st5" d="M103.9,100.5l3-1.7c0.3-0.1,0.5-0.1,0.7,0l3.1,1.7c0.2,0,0.2,0.2,0,0.4l-2.9,1.7c-0.3,0.1-0.5,0.1-0.7,0
								l-3.1-1.7C103.7,100.7,103.8,100.5,103.9,100.5z"/>
							<path class="st5" d="M99.7,98l3-1.7c0.3-0.1,0.5-0.1,0.7,0l3.1,1.7c0.2,0,0.2,0.2,0,0.4l-3,1.7c-0.3,0.1-0.5,0.1-0.7,0
								l-3.1-1.7C99.6,98.2,99.6,98.1,99.7,98z"/>
							<path class="st5" d="M95.5,95.6l3-1.7c0.3-0.1,0.5-0.1,0.7,0l3.1,1.7c0.2,0,0.2,0.2,0,0.4l-3,1.7c-0.3,0.1-0.5,0.1-0.7,0
								L95.5,96C95.4,95.9,95.4,95.6,95.5,95.6z"/>
							<path class="st5" d="M91.4,93.2l3-1.7c0.3-0.1,0.5-0.1,0.7,0l3.1,1.7c0.2,0,0.2,0.2,0,0.4l-3,1.7c-0.3,0.1-0.5,0.1-0.7,0
								l-3.1-1.7C91.2,93.4,91.2,93.3,91.4,93.2z"/>
							<path class="st5" d="M87.3,90.9l3-1.7c0.3-0.1,0.5-0.1,0.7,0l3.1,1.7c0.2,0,0.2,0.2,0,0.4l-3,1.7c-0.3,0.1-0.5,0.1-0.7,0
								l-3.1-1.7C87,91.1,87,90.8,87.3,90.9z"/>
							<path class="st5" d="M83.1,88.5l3-1.7c0.3-0.1,0.5-0.1,0.7,0l3.1,1.7c0.2,0,0.2,0.2,0,0.4l-3,1.7c-0.3,0.1-0.5,0.1-0.7,0
								l-3.1-1.9C82.8,88.6,82.8,88.5,83.1,88.5z"/>
							<path class="st5" d="M78.9,86l3-1.7c0.3-0.1,0.5-0.1,0.7,0l3.1,1.7c0.2,0,0.2,0.2,0,0.4l-3,1.7c-0.3,0.1-0.5,0.1-0.7,0
								l-3.1-1.7C78.7,86.3,78.8,86,78.9,86z"/>
							<path class="st5" d="M74.7,83.6l3-1.7c0.3-0.1,0.5-0.1,0.7,0l3.1,1.7c0.2,0,0.2,0.2,0,0.4l-3,1.7c-0.3,0.1-0.5,0.1-0.7,0
								L74.7,84C74.6,83.8,74.6,83.7,74.7,83.6z"/>
							<path class="st5" d="M70.5,81.2l3-1.7c0.3-0.1,0.5-0.1,0.7,0l3.1,1.7c0.2,0,0.2,0.2,0,0.4l-3,1.7c-0.3,0.1-0.5,0.1-0.7,0
								l-3.1-1.7C70.4,81.5,70.4,81.2,70.5,81.2z"/>
							<path class="st5" d="M66.3,78.8l3-1.7c0.3-0.1,0.5-0.1,0.7,0l3.1,1.7c0.2,0,0.2,0.2,0,0.4l-3,1.7c-0.3,0.1-0.5,0.1-0.7,0
								l-3.1-1.7C66.2,79,66.2,78.9,66.3,78.8z"/>
							<path class="st5" d="M62.3,76.3l3-1.7c0.3-0.1,0.5-0.1,0.7,0l3.1,1.9c0.2,0,0.2,0.2,0,0.4l-3,1.7c-0.3,0.1-0.5,0.1-0.7,0
								l-3.1-1.7C62,76.7,62,76.4,62.3,76.3z"/>
							<path class="st5" d="M58.1,74l3-1.7c0.3-0.1,0.5-0.1,0.7,0l3.1,1.7c0.2,0,0.2,0.2,0,0.4l-3,1.7c-0.3,0.1-0.5,0.1-0.7,0
								l-3.1-1.7C57.9,74.2,57.9,74.1,58.1,74z"/>
							<path class="st5" d="M52.1,70.5l3-1.7c0.3-0.1,0.5-0.1,0.7,0l4.9,2.8c0.2,0,0.2,0.2,0,0.4l-3,1.7c-0.3,0.1-0.5,0.1-0.7,0
								l-4.9-2.8C51.8,70.8,51.8,70.7,52.1,70.5z"/>
						</g>
						<g>
							<path class="st5" d="M54.7,73.3l-3,1.6c-0.3,0.1-0.5,0.1-0.7,0l-3.1-1.7c-0.2,0-0.2-0.2,0-0.4l3-1.7c0.3-0.1,0.5-0.1,0.7,0
								l3.1,1.7C54.9,73,54.9,73.2,54.7,73.3z"/>
							<path class="st5" d="M58.8,75.7l-3,1.7c-0.3,0.1-0.5,0.1-0.7,0L52,75.7c-0.2,0-0.2-0.2,0-0.4l3-1.7c0.3-0.1,0.5-0.1,0.7,0
								l3.1,1.7C59.1,75.4,59,75.6,58.8,75.7z"/>
							<path class="st5" d="M63,78l-3,1.7c-0.3,0.1-0.5,0.1-0.7,0L56.2,78c-0.2,0-0.2-0.2,0-0.4l3-1.7c0.3-0.1,0.5-0.1,0.7,0
								l3.1,1.7C63.2,77.8,63.2,78,63,78z"/>
							<path class="st5" d="M67.2,80.5l-3,1.7c-0.3,0.1-0.5,0.1-0.7,0l-3.1-1.7c-0.2,0-0.2-0.2,0-0.4l3-1.7c0.3-0.1,0.5-0.1,0.7,0
								l3.1,1.7C67.3,80.3,67.3,80.4,67.2,80.5z"/>
							<path class="st5" d="M71.4,82.8l-3,1.7c-0.3,0.1-0.5,0.1-0.7,0l-3.1-1.7c-0.2,0-0.2-0.2,0-0.4l3-1.7c0.3-0.1,0.5-0.1,0.7,0
								l3.1,1.7C71.5,82.6,71.5,82.8,71.4,82.8z"/>
							<path class="st5" d="M75.5,85.3l-3,1.7c-0.3,0.1-0.5,0.1-0.7,0l-3.1-1.7c-0.2,0-0.2-0.2,0-0.4l3-1.7c0.3-0.1,0.5-0.1,0.7,0
								l3.1,1.7C75.7,85.1,75.7,85.2,75.5,85.3z"/>
							<path class="st5" d="M79.6,87.6l-3,1.7c-0.3,0.1-0.5,0.1-0.7,0l-3.1-1.7c-0.2,0-0.2-0.2,0-0.4l3-1.7c0.3-0.1,0.5-0.1,0.7,0
								l3.1,1.7C79.9,87.4,79.9,87.6,79.6,87.6z"/>
							<path class="st5" d="M83.8,90.1l-3,1.7c-0.3,0.1-0.5,0.1-0.7,0L77,90.1c-0.2,0-0.2-0.2,0-0.4l3-1.7c0.3-0.1,0.5-0.1,0.7,0
								l3.1,1.7C84.1,89.8,84.1,90,83.8,90.1z"/>
							<path class="st5" d="M88,92.6l-3,1.7c-0.3,0.1-0.5,0.1-0.7,0l-3.1-1.9c-0.2,0-0.2-0.2,0-0.4l3-1.7c0.3-0.1,0.5-0.1,0.7,0
								L88,92C88.3,92.2,88.1,92.4,88,92.6z"/>
							<path class="st5" d="M92.2,94.9l-3,1.7c-0.3,0.1-0.5,0.1-0.7,0l-3.1-1.7c-0.2,0-0.2-0.2,0-0.4l3-1.7c0.3-0.1,0.5-0.1,0.7,0
								l3.1,1.7C92.3,94.7,92.3,94.8,92.2,94.9z"/>
							<path class="st5" d="M96.4,97.3l-3,1.7c-0.3,0.1-0.5,0.1-0.7,0l-3.1-1.7c-0.2,0-0.2-0.2,0-0.4l3-1.7c0.3-0.1,0.5-0.1,0.7,0
								l3.1,1.7C96.5,97,96.5,97.3,96.4,97.3z"/>
							<path class="st5" d="M100.5,99.7l-3,1.7c-0.3,0.1-0.5,0.1-0.7,0l-3-1.7c-0.2,0-0.2-0.2,0-0.4l3-1.7c0.3-0.1,0.5-0.1,0.7,0
								l3.1,1.7C100.7,99.5,100.7,99.6,100.5,99.7z"/>
							<path class="st5" d="M104.6,102l-3,1.7c-0.3,0.1-0.5,0.1-0.7,0l-3.1-1.7c-0.2,0-0.2-0.2,0-0.4l3-1.7c0.3-0.1,0.5-0.1,0.7,0
								l3.1,1.7C104.9,101.8,104.9,102,104.6,102z"/>
							<path class="st5" d="M110.8,105.6l-3,1.7c-0.3,0.1-0.5,0.1-0.7,0l-4.9-2.8c-0.2,0-0.2-0.2,0-0.4l3-1.7c0.3-0.1,0.5-0.1,0.7,0
								l4.9,2.8C110.9,105.2,110.9,105.5,110.8,105.6z"/>
						</g>
						<g>
							<path class="st5" d="M53.6,77.4l-3,1.7c-0.3,0.1-0.5,0.1-0.7,0l-6-3.4c-0.2,0-0.2-0.2,0-0.4l3-1.7c0.3-0.1,0.5-0.1,0.7,0
								l6,3.4C53.8,77.2,53.7,77.3,53.6,77.4z"/>
							<path class="st5" d="M106.6,108l-3,1.7c-0.3,0.1-0.5,0.1-0.7,0l-6-3.4c-0.2,0-0.2-0.2,0-0.4l3-1.7c0.3-0.1,0.5-0.1,0.7,0
								l6,3.4C106.8,107.7,106.8,107.8,106.6,108z"/>
							<path class="st5" d="M57.7,79.7l-3,1.7c-0.3,0.1-0.5,0.1-0.7,0l-3-1.7c-0.2,0-0.2-0.2,0-0.4l3-1.7c0.3-0.1,0.5-0.1,0.7,0
								l3.1,1.7C57.9,79.5,57.9,79.8,57.7,79.7z"/>
							<path class="st5" d="M61.9,82.2L59,84c-0.3,0.1-0.5,0.1-0.7,0l-3.1-1.7c-0.2,0-0.2-0.2,0-0.4l3-1.7c0.3-0.1,0.5-0.1,0.7,0
								l3.1,1.7C62,82,62,82.1,61.9,82.2z"/>
							<path class="st5" d="M66,84.7l-3,1.7c-0.3,0.1-0.5,0.1-0.7,0l-3-1.9c-0.2,0-0.2-0.2,0-0.4l3-1.7c0.3-0.1,0.5-0.1,0.7,0
								l3.1,1.7C66.2,84.3,66.2,84.6,66,84.7z"/>
							<path class="st5" d="M70.2,87l-3,1.7c-0.3,0.1-0.5,0.1-0.7,0L63.4,87c-0.2,0-0.2-0.2,0-0.4l3-1.7c0.3-0.1,0.5-0.1,0.7,0
								l3.1,1.7C70.4,86.8,70.4,86.9,70.2,87z"/>
							<path class="st5" d="M74.4,89.4l-3,1.7c-0.3,0.1-0.5,0.1-0.7,0l-3.1-1.7c-0.2,0-0.2-0.2,0-0.4l3-1.7c0.3-0.1,0.5-0.1,0.7,0
								l3.1,1.7C74.6,89.1,74.6,89.4,74.4,89.4z"/>
							<path class="st5" d="M78.5,91.8l-3,1.7c-0.3,0.1-0.5,0.1-0.7,0l-3.1-1.7c-0.2,0-0.2-0.2,0-0.4l3-1.7c0.3-0.1,0.5-0.1,0.7,0
								l3.1,1.7C78.8,91.6,78.7,91.7,78.5,91.8z"/>
							<path class="st5" d="M82.7,94.3l-3,1.6c-0.3,0.1-0.5,0.1-0.7,0l-3.1-1.7c-0.2,0-0.2-0.2,0-0.4l3-1.7c0.3-0.1,0.5-0.1,0.7,0
								l3.1,1.7C82.8,93.9,82.8,94.2,82.7,94.3z"/>
							<path class="st5" d="M86.9,96.6l-3,1.7c-0.3,0.1-0.5,0.1-0.7,0l-3.1-1.7c-0.2,0-0.2-0.2,0-0.4l3-1.7c0.3-0.1,0.5-0.1,0.7,0
								l3.1,1.7C87,96.4,87,96.5,86.9,96.6z"/>
							<path class="st5" d="M91.1,99l-3,1.7c-0.3,0.1-0.5,0.1-0.7,0L84.3,99c-0.2,0-0.2-0.2,0-0.4l3-1.7c0.3-0.1,0.5-0.1,0.7,0
								l3.1,1.7C91.2,98.7,91.2,99,91.1,99z"/>
							<path class="st5" d="M95.2,101.4l-3,1.7c-0.3,0.1-0.5,0.1-0.7,0l-3.1-1.7c-0.2,0-0.2-0.2,0-0.4l3-1.7c0.3-0.1,0.5-0.1,0.7,0
								l3.1,1.7C95.4,101.2,95.4,101.3,95.2,101.4z"/>
							<path class="st5" d="M99.3,103.8l-3,1.7c-0.3,0.1-0.5,0.1-0.7,0l-3.1-1.7c-0.2,0-0.2-0.2,0-0.4l3-1.7c0.3-0.1,0.5-0.1,0.7,0
								l3.1,1.7C99.6,103.5,99.6,103.8,99.3,103.8z"/>
						</g>
						<g>
							<path class="st5" d="M51.5,81l-3,1.7c-0.3,0.1-0.5,0.1-0.7,0L39.6,78c-0.2,0-0.2-0.2,0-0.4l3-1.7c0.3-0.1,0.5-0.1,0.7,0
								l8.1,4.7C51.7,80.8,51.7,80.9,51.5,81z"/>
							<path class="st5" d="M55.6,83.3l-3,1.7c-0.3,0.1-0.5,0.1-0.7,0l-3.1-1.7c-0.2,0-0.2-0.2,0-0.4l3-1.7c0.3-0.1,0.5-0.1,0.7,0
								l3.1,1.7C55.9,83.1,55.8,83.3,55.6,83.3z"/>
							<path class="st5" d="M59.8,85.8l-3,1.7c-0.3,0.1-0.5,0.1-0.7,0L53,85.8c-0.2,0-0.2-0.2,0-0.4l3-1.7c0.3-0.1,0.5-0.1,0.7,0
								l3.1,1.7C60,85.5,60,85.7,59.8,85.8z"/>
							<path class="st5" d="M64,88.1l-3,1.7c-0.3,0.1-0.5,0.1-0.7,0l-3.1-1.7c-0.2,0-0.2-0.2,0-0.4l3-1.7c0.3-0.1,0.5-0.1,0.7,0
								l3.1,1.7C64.1,87.9,64.1,88.1,64,88.1z"/>
							<path class="st5" d="M68.1,90.6l-2.8,1.7c-0.3,0.1-0.5,0.1-0.7,0l-3.1-1.7c-0.2,0-0.2-0.2,0-0.4l3-1.7c0.3-0.1,0.5-0.1,0.7,0
								l3.1,1.7C68.3,90.4,68.3,90.5,68.1,90.6z"/>
							<path class="st5" d="M72.3,93l-3,1.6c-0.3,0.1-0.5,0.1-0.7,0l-3.1-1.7c-0.2,0-0.2-0.2,0-0.4l3-1.7c0.3-0.1,0.5-0.1,0.7,0
								l3.1,1.7C72.5,92.7,72.5,92.9,72.3,93z"/>
							<path class="st5" d="M76.5,95.4l-3,1.7c-0.3,0.1-0.5,0.1-0.7,0l-3.1-1.7c-0.2,0-0.2-0.2,0-0.4l3-1.7c0.3-0.1,0.5-0.1,0.7,0
								l3.1,1.7C76.7,95.2,76.7,95.3,76.5,95.4z"/>
							<path class="st5" d="M80.6,97.7l-3,1.7c-0.3,0.1-0.5,0.1-0.7,0l-3.1-1.7c-0.2,0-0.2-0.2,0-0.4l3-1.7c0.3-0.1,0.5-0.1,0.7,0
								l3.1,1.7C80.9,97.5,80.8,97.7,80.6,97.7z"/>
							<path class="st5" d="M84.8,100.2l-3,1.7c-0.3,0.1-0.5,0.1-0.7,0l-3.1-1.7c-0.2,0-0.2-0.2,0-0.4l3-1.7c0.3-0.1,0.5-0.1,0.7,0
								l3.1,1.7C85.1,99.9,84.9,100.1,84.8,100.2z"/>
							<path class="st5" d="M89,102.5l-3,1.7c-0.3,0.1-0.5,0.1-0.7,0l-3.1-1.7c-0.2,0-0.2-0.2,0-0.4l3-1.7c0.3-0.1,0.5-0.1,0.7,0
								l3.1,1.7C89.1,102.3,89.1,102.5,89,102.5z"/>
							<path class="st5" d="M93.1,105l-3,1.7c-0.3,0.1-0.5,0.1-0.7,0l-3-1.7c-0.2,0-0.2-0.2,0-0.4l3-1.7c0.3-0.1,0.5-0.1,0.7,0
								l3.1,1.7C93.3,104.8,93.3,104.9,93.1,105z"/>
							<path class="st5" d="M102.4,110.3l-3,1.7c-0.3,0.1-0.5,0.1-0.7,0l-8.1-4.7c-0.2,0-0.2-0.2,0-0.4l3-1.7c0.3-0.1,0.5-0.1,0.7,0
								l8.1,4.7C102.5,110,102.5,110.3,102.4,110.3z"/>
						</g>
						<g>
							<path class="st5" d="M80.6,102.5l-3,1.7c-0.3,0.1-0.5,0.1-0.7,0L57.2,92.9c-0.2,0-0.2-0.2,0-0.4l3-1.7c0.3-0.1,0.5-0.1,0.7,0
								l19.7,11.3C80.9,102.3,80.9,102.5,80.6,102.5z"/>
							<path class="st5" d="M54.8,87.6l-3,1.7c-0.3,0.1-0.5,0.1-0.7,0L48,87.6c-0.2,0-0.2-0.2,0-0.4l3-1.7c0.3-0.1,0.5-0.1,0.7,0
								l3.1,1.7C54.9,87.4,54.9,87.5,54.8,87.6z"/>
							<path class="st5" d="M59.8,90.6l-3,1.7c-0.3,0.1-0.5,0.1-0.7,0L52.2,90c-0.2,0-0.2-0.2,0-0.4l3-1.7c0.3-0.1,0.5-0.1,0.7,0
								l3.9,2.3C60.1,90.4,60,90.5,59.8,90.6z"/>
							<path class="st5" d="M86,105.7l-3,1.7c-0.1,0.1-0.2,0.2,0,0.4l3.1,1.7c0.3,0.1,0.5,0.1,0.7,0l3-1.7c0.1-0.1,0.2-0.2,0-0.4
								l-3.1-1.7C86.7,105.6,86.3,105.6,86,105.7z"/>
							<path class="st5" d="M81,102.8l-3,1.7c-0.1,0.1-0.2,0.2,0,0.4l3.9,2.3c0.3,0.1,0.5,0.1,0.7,0l3-1.7c0.1-0.1,0.2-0.2,0-0.4
								l-3.9-2.3C81.6,102.7,81.3,102.7,81,102.8z"/>
							<path class="st5" d="M42.2,80.4l-3,1.7c-0.3,0.1-0.5,0.1-0.7,0l-3.1-1.7c-0.2,0-0.2-0.2,0-0.4l3-1.7c0.3-0.1,0.5-0.1,0.7,0
								l3.1,1.7C42.5,80.1,42.5,80.4,42.2,80.4z"/>
							<path class="st5" d="M46.4,82.8l-3,1.7c-0.3,0.1-0.5,0.1-0.7,0l-3.1-1.7c-0.2,0-0.2-0.2,0-0.4l3-1.7c0.3-0.1,0.5-0.1,0.7,0
								l3.1,1.7C46.7,82.6,46.7,82.7,46.4,82.8z"/>
							<path class="st5" d="M50.6,85.2l-3,1.7c-0.3,0.1-0.5,0.1-0.7,0l-3.1-1.7c-0.2,0-0.2-0.2,0-0.4l3-1.7c0.3-0.1,0.5-0.1,0.7,0
								l3.1,1.7C50.8,84.9,50.7,85.2,50.6,85.2z"/>
							<path class="st5" d="M98.2,112.7l-3,1.7c-0.3,0.1-0.5,0.1-0.7,0l-7.3-4.2c-0.2,0-0.2-0.2,0-0.4l3-1.7c0.3-0.1,0.5-0.1,0.7,0
								l7.3,4.2C98.5,112.4,98.5,112.6,98.2,112.7z"/>
						</g>
						<g>
							<path class="st5" d="M112.2,100.5l1.5-0.9c0.3-0.1,0.5-0.1,0.7,0l3.1,1.7c0.2,0,0.2,0.2,0,0.4l-1.5,0.9
								c-0.3,0.1-0.5,0.1-0.7,0l-3.1-1.7C112,100.7,112,100.5,112.2,100.5z"/>
							<path class="st5" d="M108.1,98l1.5-0.9c0.3-0.1,0.5-0.1,0.7,0l3.1,1.7c0.2,0,0.2,0.2,0,0.4l-1.5,0.9c-0.3,0.1-0.5,0.1-0.7,0
								l-3.1-1.7C107.9,98.4,107.9,98.1,108.1,98z"/>
							<path class="st5" d="M103.9,95.6l1.5-0.9c0.3-0.1,0.5-0.1,0.7,0l3.1,1.7c0.2,0,0.2,0.2,0,0.4l-1.5,0.9
								c-0.3,0.1-0.5,0.1-0.7,0l-3.1-1.7C103.7,95.9,103.7,95.8,103.9,95.6z"/>
							<path class="st5" d="M99.7,93.2l1.5-0.9c0.3-0.1,0.5-0.1,0.7,0L105,94c0.2,0,0.2,0.2,0,0.4l-1.5,0.9c-0.3,0.1-0.5,0.1-0.7,0
								l-3.1-1.7C99.5,93.6,99.6,93.3,99.7,93.2z"/>
							<path class="st5" d="M95.5,90.9L97,90c0.3-0.1,0.5-0.1,0.7,0l3.1,1.7c0.2,0,0.2,0.2,0,0.4L99.3,93c-0.3,0.1-0.5,0.1-0.7,0
								l-3.1-1.7C95.4,91.1,95.4,91,95.5,90.9z"/>
							<path class="st5" d="M91.4,88.5l1.5-0.9c0.3-0.1,0.5-0.1,0.7,0l3.1,1.7c0.2,0,0.2,0.2,0,0.4l-1.5,0.9c-0.3,0.1-0.5,0.1-0.7,0
								l-3.1-1.9C91.2,88.7,91.2,88.5,91.4,88.5z"/>
							<path class="st5" d="M87.2,86l1.5-0.9c0.3-0.1,0.5-0.1,0.7,0l3.1,1.7c0.2,0,0.2,0.2,0,0.4L91,88.1c-0.3,0.1-0.5,0.1-0.7,0
								l-3.1-1.7C87,86.3,87,86.2,87.2,86z"/>
							<path class="st5" d="M83.1,83.6l1.5-0.9c0.3-0.1,0.5-0.1,0.7,0l3.1,1.7c0.2,0,0.2,0.2,0,0.4l-1.5,0.9c-0.3,0.1-0.5,0.1-0.7,0
								L83.1,84C82.8,84,82.8,83.7,83.1,83.6z"/>
							<path class="st5" d="M78.9,81.2l1.5-0.9c0.3-0.1,0.5-0.1,0.7,0l3.1,1.7c0.2,0,0.2,0.2,0,0.4l-1.5,0.9c-0.3,0.1-0.5,0.1-0.7,0
								l-3.1-1.7C78.7,81.5,78.7,81.4,78.9,81.2z"/>
							<path class="st5" d="M74.7,78.8l1.5-0.9c0.3-0.1,0.5-0.1,0.7,0l3.1,1.7c0.2,0,0.2,0.2,0,0.4l-1.5,0.9c-0.3,0.1-0.5,0.1-0.7,0
								l-3.1-1.7C74.5,79.1,74.5,78.9,74.7,78.8z"/>
							<path class="st5" d="M70.5,76.4l1.5-0.9c0.3-0.1,0.5-0.1,0.7,0l3.1,1.7c0.2,0,0.2,0.2,0,0.4l-1.5,0.9c-0.3,0.1-0.5,0.1-0.7,0
								l-3.1-1.7C70.3,76.7,70.4,76.6,70.5,76.4z"/>
							<path class="st5" d="M66.3,74l1.5-0.9c0.3-0.1,0.5-0.1,0.7,0l3.1,1.7c0.2,0,0.2,0.2,0,0.4l-1.5,0.9c-0.3,0.1-0.5,0.1-0.7,0
								l-3.1-1.7C66.2,74.3,66.2,74.1,66.3,74z"/>
							<path class="st5" d="M62.2,71.6l1.5-0.9c0.3-0.1,0.5-0.1,0.7,0l3.1,1.7c0.2,0,0.2,0.2,0,0.4L66,73.7c-0.3,0.1-0.5,0.1-0.7,0
								L62.2,72C62,71.9,62,71.8,62.2,71.6z"/>
							<path class="st5" d="M56.1,68.2l1.5-0.9c0.3-0.1,0.5-0.1,0.7,0l4.9,2.8c0.2,0,0.2,0.2,0,0.4l-1.5,0.9c-0.3,0.1-0.5,0.1-0.7,0
								l-4.9-2.8C56,68.4,56,68.2,56.1,68.2z"/>
						</g>
					</g>
					<path class="st6" d="M39.6,105.8l11,6.4c0.2-0.3,0.2-0.5,0-0.6l-10-5.8C40.4,105.6,39.9,105.6,39.6,105.8z"/>
					<polygon class="st6" points="65.4,67.3 117.3,97.3 116.6,97.7 64.6,67.7 					"/>
				</g>
				<path class="st7" d="M31.1,78.5L55,64.7c1.7-1,4.2-1.1,5.5-0.2l61.6,35.5c1.5,0.9,1.2,2.2-0.4,3.2L97.8,117L31.1,78.5z"/>
			</g>
			<polygon class="st4" points="125.8,51.1 125.8,97.5 124.7,98.1 124.7,51.7 			"/>
			<g>
				<path class="st8" d="M58,59.7V13.3c0-2.5,1.2-2.8,2.6-2l61.6,35.5c1.7,1,2.6,2.3,2.6,4.9v46.4c0,2.3-1.2,2.8-2.6,2L60.6,64.6
					C59,63.6,58,62.8,58,59.7z"/>
				<path class="st9" d="M58.4,12.8v47.8c0,1.3,1,2.9,2.1,3.6l61.9,35.7c1.1,0.6,2.1,0.1,2.1-1.2V50.8c0-1.3-1-2.9-2.1-3.6l-62-35.7
					C59.2,10.9,58.3,11.4,58.4,12.8z"/>
				<polygon id="XMLID_1_" class="st8" points="60.7,59.2 60.7,14.5 122,49.8 122,94.4 				"/>
				<g>
					<defs>
						<polygon id="SVGID_2_" points="60.7,59.2 60.7,14.5 122,49.8 122,94.4 						"/>
					</defs>
					<clipPath id="SVGID_3_">
						<use xlink:href="#SVGID_2_"  style="overflow:visible;"/>
					</clipPath>
					<g class="st10">
						<g>
							<path class="st11" d="M151.2,73.5c1-0.9,0.5-2.2-0.9-3l-59-31.3c-0.5-0.4-1.2-0.5-1.9-0.5l0,0h3.4l0,0c0.6,0,1.3,0.1,2,0.5
								l59,31.1c1.3,0.7,1.7,2.1,0.9,3L151.2,73.5z"/>
							<path class="st11" d="M154.8,73.3l-23.5,23.3c-0.5,0.5-1.2,0.9-2.1,0.9l0,0l0,0c-0.1,0-0.2,0-0.4,0l-3.4,0.1l0,0
								c0.7,0,1.6-0.4,2.1-0.9l23.9-23.3L154.8,73.3z"/>
						</g>
						<g>
							<path class="st2" d="M141.7,82.7l9.4-9.2c1-0.9,0.5-2.2-0.9-3l-59-31.3C90,38.5,88,38.6,87,39.4l-10.6,8.1L141.7,82.7z"/>
							<path class="st2" d="M76.5,47.5L60.2,59.9c-1.2,0.9-1,2.2,0.4,3l62.3,34.2c1.5,0.9,3.4,0.6,4.5-0.4l14.4-14.2L76.5,47.5z"/>
							<g>
								<g>
									<path class="st12" d="M124,88.9l-1.9,1.7c-0.1,0.1-0.1,0.2,0.1,0.4l3.2,1.7c0.3,0.1,0.5,0.1,0.6,0l1.9-1.7
										c0.1-0.1,0.1-0.2-0.1-0.4l-3.2-1.7C124.4,88.7,124.1,88.7,124,88.9z"/>
									<path class="st12" d="M119.7,86.5l-1.9,1.7c-0.1,0.1-0.1,0.2,0.1,0.4l3.2,1.7c0.3,0.1,0.5,0.1,0.6,0l1.9-1.7
										c0.1-0.1,0.1-0.2-0.1-0.4l-3.2-1.7C120.2,86.4,119.9,86.4,119.7,86.5z"/>
									<path class="st12" d="M115.4,84.2l-1.9,1.7c-0.1,0.1-0.1,0.2,0.1,0.4l3.2,1.7c0.3,0.1,0.5,0.1,0.6,0l1.9-1.7
										c0.1-0.1,0.1-0.2-0.1-0.4l-3.1-1.7C115.8,84.1,115.6,84.1,115.4,84.2z"/>
									<path class="st12" d="M111,81.8l-1.9,1.7c-0.1,0.1-0.1,0.2,0.1,0.4l3.2,1.7c0.3,0.1,0.5,0.1,0.6,0l1.9-1.7
										c0.1-0.1,0.1-0.2-0.1-0.4l-3.1-1.7C111.7,81.7,111.4,81.7,111,81.8z"/>
									<path class="st12" d="M107.1,79.6l-2,1.7c-0.1,0.1-0.1,0.2,0.1,0.4l3.1,1.7c0.3,0.1,0.5,0.1,0.6,0l1.9-1.7
										c0.1-0.1,0.1-0.2-0.1-0.4l-3.1-1.7C107.5,79.5,107.2,79.5,107.1,79.6z"/>
									<path class="st12" d="M102.8,77.3l-2,1.7c-0.1,0.1-0.1,0.2,0.1,0.4l3.1,1.7c0.3,0.1,0.5,0.1,0.6,0l2-1.7
										c0.1-0.1,0.1-0.2-0.1-0.4l-3.1-1.7C103.3,77.2,102.9,77.2,102.8,77.3z"/>
									<path class="st12" d="M98.6,75l-2,1.7c-0.1,0.1-0.1,0.2,0.1,0.4l3.1,1.7c0.3,0.1,0.5,0.1,0.6,0l2-1.7
										c0.1-0.1,0.1-0.2-0.1-0.4L99.2,75C99.1,75,98.7,75,98.6,75z"/>
									<path class="st12" d="M94.4,72.7l-2,1.7c-0.1,0.1-0.1,0.2,0.1,0.4l3.1,1.7c0.3,0.1,0.5,0.1,0.6,0l2-1.7
										c0.1-0.1,0.1-0.2-0.1-0.4L95,72.7C94.9,72.6,94.7,72.6,94.4,72.7z"/>
									<path class="st12" d="M90.4,70.5l-2,1.6c-0.1,0.1-0.1,0.2,0.1,0.4l3.1,1.7c0.3,0.1,0.5,0.1,0.6,0l2-1.7
										c0.1-0.1,0.1-0.2-0.1-0.4L91,70.5C90.7,70.4,90.5,70.4,90.4,70.5z"/>
									<path class="st12" d="M86.2,68.2l-2,1.6c-0.1,0.1-0.1,0.2,0.1,0.4l3.1,1.7c0.3,0.1,0.5,0.1,0.6,0l2-1.6
										c0.1-0.1,0.1-0.2-0.1-0.4l-3.1-1.7C86.7,68.2,86.3,68.2,86.2,68.2z"/>
									<path class="st12" d="M82.1,66L80,67.6c-0.1,0.1-0.1,0.2,0.1,0.4l3.1,1.7c0.3,0.1,0.5,0.1,0.6,0l2-1.6
										c0.1-0.1,0.1-0.2-0.1-0.4l-3-1.7C82.5,65.8,82.2,65.8,82.1,66z"/>
									<path class="st12" d="M77.9,63.8l-2,1.6c-0.1,0.1-0.1,0.2,0.1,0.4l3.1,1.6c0.3,0.1,0.5,0.1,0.6,0l2-1.6
										c0.1-0.1,0.1-0.2-0.1-0.4l-3.1-1.6C78.4,63.6,78.2,63.6,77.9,63.8z"/>
									<path class="st12" d="M74,61.5l-2.1,1.6c-0.1,0.1-0.1,0.2,0.1,0.4l3.1,1.6c0.3,0.1,0.5,0.1,0.6,0l2-1.6
										c0.1-0.1,0-0.2-0.1-0.4l-3.1-1.6C74.4,61.4,74,61.4,74,61.5z"/>
									<path class="st12" d="M68.1,58.2L66,59.8c-0.2,0.1-0.1,0.2,0,0.4l4.8,2.7c0.3,0.1,0.5,0.1,0.6,0l2.1-1.6
										c0.1-0.1,0-0.2-0.1-0.4l-4.8-2.6C68.4,58.2,68.2,58.2,68.1,58.2z"/>
								</g>
								<g>
									<path class="st12" d="M72.5,59.7l2-1.6c0.1-0.1,0-0.2-0.1-0.4l-3-1.6c-0.3-0.1-0.5-0.1-0.6,0l-1.9,1.6
										c-0.2,0.1-0.1,0.2,0,0.4l3,1.6C72,59.8,72.4,59.8,72.5,59.7z"/>
									<path class="st12" d="M76.6,61.9l2-1.6c0.1-0.1,0-0.2-0.1-0.4l-3-1.6c-0.3-0.1-0.5-0.1-0.6,0l-2,1.6
										c-0.1,0.1,0,0.2,0.1,0.4l3,1.6C76.1,62,76.5,62,76.6,61.9z"/>
									<path class="st12" d="M80.5,64.1l2-1.6c0.1-0.1,0-0.2-0.1-0.4l-3-1.6c-0.3-0.1-0.5-0.1-0.6,0l-2,1.6
										c-0.1,0.1,0,0.2,0.1,0.4l3.1,1.6C80.3,64.3,80.5,64.3,80.5,64.1z"/>
									<path class="st12" d="M84.7,66.5l2-1.6c0.1-0.1,0.1-0.2-0.1-0.4l-3.1-1.6c-0.3-0.1-0.5-0.1-0.6,0l-2,1.6
										c-0.1,0.1-0.1,0.2,0.1,0.4l3.1,1.6C84.3,66.5,84.6,66.5,84.7,66.5z"/>
									<path class="st12" d="M88.9,68.7l2-1.6c0.1-0.1,0.1-0.2-0.1-0.4l-3.1-1.6c-0.3-0.1-0.5-0.1-0.6,0l-2,1.6
										C85,66.8,85,67,85.2,67.1l3.1,1.6C88.4,68.8,88.8,68.8,88.9,68.7z"/>
									<path class="st12" d="M93.1,70.8l2-1.6c0.1-0.1,0.1-0.2-0.1-0.4l-3.1-1.6c-0.3-0.1-0.5-0.1-0.6,0l-2.1,1.6
										c-0.2,0.1-0.2,0.2,0,0.4l3.1,1.7C92.6,71,92.8,71,93.1,70.8z"/>
									<path class="st12" d="M97.2,73l2-1.6c0.1-0.1,0.1-0.2-0.1-0.4L96,69.4c-0.3-0.1-0.5-0.1-0.6,0l-2,1.6
										c-0.1,0.1-0.1,0.2,0.1,0.4l3.1,1.7C96.8,73.2,97,73.2,97.2,73z"/>
									<path class="st12" d="M101.3,75.4l2-1.7c0.1-0.1,0.1-0.2-0.1-0.4l-3.1-1.6c-0.3-0.1-0.5-0.1-0.6,0l-2,1.6
										c-0.1,0.1-0.1,0.2,0.1,0.4l3.1,1.7C101,75.6,101.2,75.6,101.3,75.4z"/>
									<path class="st12" d="M105.6,77.7l1.9-1.7c0.1-0.1,0.1-0.2-0.1-0.4l-3.1-1.7c-0.3-0.1-0.5-0.1-0.6,0l-2,1.7
										c-0.1,0.1-0.1,0.2,0.1,0.4l3.1,1.7C105.1,77.8,105.4,77.8,105.6,77.7z"/>
									<path class="st12" d="M109.8,80l1.9-1.7c0.1-0.1,0.1-0.2-0.1-0.4l-3.1-1.7c-0.3-0.1-0.5-0.1-0.6,0l-2,1.7
										c-0.1,0.1-0.1,0.2,0.1,0.4l3.1,1.7C109.3,80.1,109.6,80.1,109.8,80z"/>
									<path class="st12" d="M113.9,82.3l1.9-1.7c0.1-0.1,0.1-0.2-0.1-0.4l-3.1-1.7c-0.3-0.1-0.5-0.1-0.6,0l-1.9,1.7
										c-0.1,0.1-0.1,0.2,0.1,0.4l3.1,1.7C113.5,82.3,113.8,82.3,113.9,82.3z"/>
									<path class="st12" d="M118.2,84.6l1.9-1.7c0.1-0.1,0.1-0.2-0.1-0.4l-3.1-1.7c-0.3-0.1-0.5-0.1-0.6,0l-1.9,1.7
										c-0.1,0.1-0.1,0.2,0.1,0.4l3.1,1.7C117.7,84.7,118.1,84.7,118.2,84.6z"/>
									<path class="st12" d="M122.4,86.9l1.7-1.7c0.1-0.1,0.1-0.2-0.1-0.4l-3.1-1.7c-0.3-0.1-0.5-0.1-0.6,0l-1.9,1.7
										c-0.1,0.1-0.1,0.2,0.1,0.4l3.2,1.7C122,87,122.3,87,122.4,86.9z"/>
									<path class="st12" d="M128.5,90.2l1.9-1.7c0.1-0.1,0.1-0.2-0.1-0.4l-4.9-2.7c-0.3-0.1-0.5-0.1-0.6,0l-1.9,1.7
										c-0.1,0.1-0.1,0.2,0.1,0.4l5.1,2.8C128.2,90.4,128.4,90.4,128.5,90.2z"/>
								</g>
								<g>
									<path class="st12" d="M78.4,59.1l2-1.6c0.1-0.1,0-0.2-0.1-0.4l-5.9-3.2c-0.3-0.1-0.5-0.1-0.6,0l-2,1.6
										c-0.2,0.1-0.1,0.2,0,0.4l5.9,3.2C77.8,59.2,78.1,59.2,78.4,59.1z"/>
									<path class="st12" d="M131.1,87.8L133,86c0.1-0.1,0.1-0.2-0.1-0.4l-6.2-3.3c-0.3-0.1-0.5-0.1-0.6,0l-1.9,1.7
										c-0.1,0.1-0.1,0.2,0.1,0.4l6.2,3.3C130.8,87.9,131,87.9,131.1,87.8z"/>
									<path class="st12" d="M82.4,61.3l2-1.6c0.1-0.1,0-0.2-0.1-0.4l-3-1.6c-0.3-0.1-0.5-0.1-0.6,0l-2,1.6
										c-0.1,0.1,0,0.2,0.1,0.4l3,1.6C81.9,61.4,82.1,61.4,82.4,61.3z"/>
									<path class="st12" d="M86.4,63.5l2-1.6c0.1-0.1,0-0.2-0.1-0.4l-3-1.6c-0.3-0.1-0.5-0.1-0.6,0l-2,1.6
										c-0.1,0.1,0,0.2,0.1,0.4l3,1.6C85.9,63.6,86.2,63.6,86.4,63.5z"/>
									<path class="st12" d="M90.4,65.7l2-1.6c0.1-0.1,0-0.2-0.1-0.4l-3-1.6c-0.3-0.1-0.5-0.1-0.6,0l-2,1.6
										c-0.1,0.1-0.1,0.2,0.1,0.4l3.1,1.6C90,65.8,90.4,65.8,90.4,65.7z"/>
									<path class="st12" d="M94.6,67.9l2-1.6c0.1-0.1,0.1-0.2-0.1-0.4l-3.1-1.6c-0.3-0.1-0.5-0.1-0.6,0l-2,1.6
										c-0.1,0.1-0.1,0.2,0.1,0.4l3.1,1.6C94.2,68.1,94.4,68.1,94.6,67.9z"/>
									<path class="st12" d="M98.7,70.3l2-1.6c0.1-0.1,0.1-0.2-0.1-0.4l-3.1-1.6c-0.3-0.1-0.5-0.1-0.6,0l-2,1.6
										c-0.1,0.1-0.1,0.2,0.1,0.4l3.1,1.6C98.2,70.3,98.6,70.3,98.7,70.3z"/>
									<path class="st12" d="M103,72.4l1.9-1.6c0.1-0.1,0.1-0.2-0.1-0.4l-3.1-1.6c-0.3-0.1-0.5-0.1-0.6,0l-2,1.6
										c-0.1,0.1-0.1,0.2,0.1,0.4l3.1,1.7C102.4,72.6,102.7,72.6,103,72.4z"/>
									<path class="st12" d="M107,74.6l1.9-1.6c0.1-0.1,0.1-0.2-0.1-0.4l-3.1-1.6c-0.3-0.1-0.5-0.1-0.6,0l-1.9,1.6
										c-0.1,0.1-0.1,0.2,0.1,0.4l3.1,1.7C106.6,74.8,106.9,74.8,107,74.6z"/>
									<path class="st12" d="M111.2,77.2l1.9-1.7c0.1-0.1,0.1-0.2-0.1-0.4l-3.1-1.7c-0.3-0.1-0.5-0.1-0.6,0l-1.9,1.6
										c-0.1,0.1-0.1,0.2,0.1,0.4l3.1,1.7C110.8,77.1,111.1,77.1,111.2,77.2z"/>
									<path class="st12" d="M115.4,79.3l1.9-1.7c0.1-0.1,0.1-0.2-0.1-0.4l-3.1-1.7c-0.3-0.1-0.5-0.1-0.6,0l-1.9,1.7
										c-0.1,0.1-0.1,0.2,0.1,0.4l3.1,1.7C115,79.4,115.2,79.4,115.4,79.3z"/>
									<path class="st12" d="M119.5,81.6l1.9-1.7c0.1-0.1,0.1-0.4-0.1-0.4l-3.1-1.7c-0.3-0.1-0.5-0.1-0.6,0l-1.9,1.7
										c-0.1,0.1-0.1,0.2,0.1,0.4l3.1,1.7C119.2,81.6,119.4,81.6,119.5,81.6z"/>
									<path class="st12" d="M123.9,83.8l1.9-1.7c0.1-0.1,0.1-0.2-0.1-0.4l-3.1-1.7c-0.3-0.1-0.5-0.1-0.6,0l-1.9,1.7
										c-0.1,0.1-0.1,0.2,0.1,0.4l3.1,1.7C123.4,84,123.6,84,123.9,83.8z"/>
								</g>
								<g>
									<path class="st12" d="M83,58l2-1.6c0.1-0.1,0-0.2-0.1-0.4L77,51.8c-0.3-0.1-0.5-0.1-0.6,0l-2,1.5c-0.1,0.1,0,0.2,0.1,0.4
										l7.9,4.3C82.6,58.1,82.8,58.1,83,58z"/>
									<path class="st12" d="M87.1,60.2l2-1.6c0.1-0.1,0-0.2-0.1-0.4l-3-1.6c-0.3-0.1-0.5-0.1-0.6,0l-2,1.6
										c-0.1,0.1,0,0.2,0.1,0.4l3,1.6C86.7,60.3,86.9,60.3,87.1,60.2z"/>
									<path class="st12" d="M91.1,62.4l2-1.6c0.1-0.1,0-0.2-0.1-0.4l-3-1.6c-0.3-0.1-0.5-0.1-0.6,0l-2,1.6
										c-0.1,0.1,0,0.2,0.1,0.4l3,1.6C90.7,62.5,91,62.5,91.1,62.4z"/>
									<path class="st12" d="M95.2,64.6l2-1.6c0.1-0.1,0-0.2-0.1-0.4l-3-1.6c-0.3-0.1-0.5-0.1-0.6,0l-2,1.6
										c-0.1,0.1,0,0.2,0.1,0.4l3.1,1.6C94.8,64.7,95,64.7,95.2,64.6z"/>
									<path class="st12" d="M99.4,66.7l1.9-1.6c0.1-0.1,0.1-0.2-0.1-0.4l-3-1.5c-0.3-0.1-0.5-0.1-0.6,0l-2,1.6
										c-0.1,0.1-0.1,0.2,0.1,0.4l3.1,1.6C98.9,67,99.2,67,99.4,66.7z"/>
									<path class="st12" d="M103.4,69l1.9-1.6c0.1-0.1,0.1-0.2-0.1-0.4l-3.1-1.6c-0.3-0.1-0.5-0.1-0.6,0L99.6,67
										c-0.1,0.1-0.1,0.2,0.1,0.4l3.1,1.6C103,69.2,103.3,69.2,103.4,69z"/>
									<path class="st12" d="M107.6,71.3l1.9-1.6c0.1-0.1,0.1-0.2-0.1-0.4l-3.1-1.6c-0.3-0.1-0.5-0.1-0.6,0l-1.9,1.6
										c-0.1,0.1-0.1,0.2,0.1,0.4l3.1,1.6C107.1,71.4,107.5,71.4,107.6,71.3z"/>
									<path class="st12" d="M111.8,73.5l1.9-1.6c0.1-0.1,0.1-0.2-0.1-0.4l-3.1-1.6c-0.3-0.1-0.5-0.1-0.6,0l-1.9,1.6
										c-0.1,0.1-0.1,0.2,0.1,0.4l3.1,1.6C111.3,73.6,111.5,73.6,111.8,73.5z"/>
									<path class="st12" d="M116,75.7l1.9-1.6c0.1-0.1,0.1-0.2-0.1-0.4l-3.1-1.6c-0.3-0.1-0.5-0.1-0.6,0l-2,1.6
										c-0.1,0.1-0.1,0.2,0.1,0.4l3.1,1.7C115.5,75.9,115.7,75.8,116,75.7z"/>
									<path class="st12" d="M120,78l1.9-1.7c0.1-0.1,0.1-0.2-0.1-0.4l-3.1-1.6c-0.3-0.1-0.5-0.1-0.6,0l-1.9,1.6
										c-0.1,0.1-0.1,0.2,0.1,0.4l3.1,1.7C119.7,78.2,119.9,78.2,120,78z"/>
									<path class="st12" d="M124.2,80.3l1.9-1.7c0.1-0.1,0.1-0.2-0.1-0.4l-3.1-1.7c-0.3-0.1-0.5-0.1-0.6,0l-1.9,1.7
										c-0.1,0.1-0.1,0.2,0.1,0.4l3.1,1.7C123.9,80.4,124.1,80.4,124.2,80.3z"/>
									<path class="st12" d="M133.7,85.3l1.7-1.7c0.1-0.1,0.1-0.2-0.1-0.4l-8.1-4.3c-0.3-0.1-0.5-0.1-0.6,0l-1.9,1.7
										c-0.1,0.1-0.1,0.2,0.1,0.4l8.2,4.4C133.2,85.5,133.5,85.4,133.7,85.3z"/>
								</g>
								<g>
									<path class="st12" d="M118.4,73.4l1.9-1.6c0.1-0.1,0.1-0.2-0.1-0.4l-19.3-10.3c-0.3-0.1-0.5-0.1-0.6,0l-2,1.6
										c-0.1,0.1,0,0.2,0.1,0.4l19.5,10.5C118.1,73.6,118.3,73.6,118.4,73.4z"/>
									<path class="st12" d="M93.1,59.7l1.9-1.6c0.1-0.1,0-0.2-0.1-0.4l-3-1.6c-0.3-0.1-0.5-0.1-0.6,0l-2,1.6
										c-0.1,0.1,0,0.2,0.1,0.4l3,1.6C92.6,59.8,92.8,59.8,93.1,59.7z"/>
									<path class="st12" d="M97.8,62.4l1.9-1.6c0.1-0.1,0-0.2-0.1-0.4l-3.8-2.1c-0.3-0.1-0.5-0.1-0.6,0l-2,1.7
										c-0.1,0.1,0,0.2,0.1,0.4l3.9,2.1C97.5,62.5,97.8,62.5,97.8,62.4z"/>
									<path class="st12" d="M123.9,76.3l1.9-1.6c0.1-0.1,0.4-0.1,0.6,0l3,1.7c0.2,0.1,0.2,0.2,0.1,0.4l-1.7,1.7
										c-0.1,0.1-0.4,0.1-0.6,0l-3.1-1.7C123.9,76.7,123.7,76.6,123.9,76.3z"/>
									<path class="st12" d="M118.8,73.7l1.9-1.6c0.1-0.1,0.4-0.1,0.6,0l3.9,2.1c0.2,0.1,0.2,0.2,0.1,0.4l-1.9,1.6
										c-0.1,0.1-0.4,0.1-0.6,0l-3.9-2.1C118.8,74,118.7,73.7,118.8,73.7z"/>
									<path class="st12" d="M80.9,53.2l2-1.5c0.1-0.1,0-0.2-0.1-0.4l-3-1.6c-0.3-0.1-0.5-0.1-0.6,0l-2,1.5
										c-0.1,0.1,0,0.2,0.1,0.4l3,1.6C80.4,53.3,80.8,53.3,80.9,53.2z"/>
									<path class="st12" d="M84.8,55.2l2-1.5c0.1-0.1,0.1-0.2,0-0.4l-3-1.6c-0.3-0.1-0.5-0.1-0.6,0l-2,1.6
										c-0.1,0.1,0,0.2,0.1,0.4l3,1.6C84.5,55.5,84.7,55.5,84.8,55.2z"/>
									<path class="st12" d="M88.9,57.6l2-1.6c0.1-0.1,0-0.2-0.1-0.4l-3-1.6c-0.3-0.1-0.5-0.1-0.6,0l-2,1.5
										c-0.1,0.1,0,0.2,0.1,0.4l3,1.6C88.5,57.6,88.8,57.6,88.9,57.6z"/>
									<path class="st12" d="M136.1,83l1.7-1.7c0.1-0.1,0.1-0.2-0.1-0.4l-7.3-3.9c-0.3-0.1-0.5-0.1-0.6,0l-1.7,1.7
										c-0.1,0.1-0.1,0.2,0.1,0.4l7.4,3.9C135.7,83.1,136,83.1,136.1,83z"/>
								</g>
								<g>
									<path class="st12" d="M121.4,91.3l-1,0.9c-0.1,0.2-0.1,0.4,0.1,0.5l3.2,1.7c0.3,0.1,0.5,0.1,0.6,0l1-0.9
										c0.1-0.2,0.1-0.4-0.1-0.5l-3.2-1.7C121.8,91.2,121.5,91.2,121.4,91.3z"/>
									<path class="st12" d="M117.1,89l-1,0.9c-0.1,0.1-0.1,0.2,0.1,0.4l3.2,1.7c0.3,0.1,0.5,0.1,0.6,0l1-0.9
										c0.1-0.1,0.1-0.2-0.1-0.4l-3.2-1.7C117.5,88.9,117.2,88.9,117.1,89z"/>
									<path class="st12" d="M112.8,86.6l-1,0.9c-0.1,0.1-0.1,0.2,0.1,0.4l3.2,1.7c0.3,0.1,0.5,0.1,0.6,0l1-0.9
										c0.1-0.1,0.1-0.2-0.1-0.4l-3.2-1.7C113.3,86.5,113,86.5,112.8,86.6z"/>
									<path class="st12" d="M108.6,84.3l-1,0.9c-0.1,0.1-0.1,0.2,0.1,0.4l3.2,1.7c0.3,0.1,0.5,0.1,0.6,0l1-0.9
										c0.1-0.1,0.1-0.2-0.1-0.4l-3.2-1.7C109,84.2,108.7,84.2,108.6,84.3z"/>
									<path class="st12" d="M104.3,82l-1,0.9c-0.1,0.1-0.1,0.2,0.1,0.4l3.1,1.7c0.3,0.1,0.5,0.1,0.6,0l1-0.9
										c0.1-0.1,0.1-0.2-0.1-0.4l-3.1-1.7C104.8,81.9,104.5,81.9,104.3,82z"/>
									<path class="st12" d="M100.1,79.6l-1,0.9c-0.1,0.1-0.1,0.2,0.1,0.4l3.1,1.7c0.3,0.1,0.5,0.1,0.6,0l1-0.9
										c0.1-0.1,0.1-0.2-0.1-0.4l-3.1-1.7C100.6,79.5,100.2,79.6,100.1,79.6z"/>
									<path class="st12" d="M95.9,77.4l-1,0.9c-0.1,0.1-0.1,0.2,0.1,0.4l3.1,1.7c0.3,0.1,0.5,0.1,0.6,0l1-0.9
										c0.1-0.1,0.1-0.2-0.1-0.4l-3.1-1.7C96.3,77.3,96,77.3,95.9,77.4z"/>
									<path class="st12" d="M91.7,75.1l-1,0.9c-0.1,0.1-0.1,0.2,0.1,0.4l3.1,1.7c0.3,0.1,0.5,0.1,0.6,0l1-0.9
										c0.1-0.1,0.1-0.2-0.1-0.4l-3.1-1.7C92.1,75,91.8,75,91.7,75.1z"/>
									<path class="st12" d="M87.5,72.9l-1,0.9c-0.1,0.1-0.1,0.2,0.1,0.4l3.1,1.7c0.3,0.1,0.5,0.1,0.6,0l1-0.9
										c0.1-0.1,0.1-0.2-0.1-0.4l-3.1-1.7C88,72.7,87.7,72.7,87.5,72.9z"/>
									<path class="st12" d="M83.3,70.5l-1,0.9c-0.1,0.1-0.1,0.2,0.1,0.4l3.1,1.7c0.3,0.1,0.5,0.1,0.6,0l1-0.9
										c0.1-0.1,0.1-0.2-0.1-0.4l-3-1.7C83.8,70.4,83.6,70.4,83.3,70.5z"/>
									<path class="st12" d="M79.3,68.3l-1,0.9c-0.1,0.1-0.1,0.2,0.1,0.4l3.1,1.7c0.3,0.1,0.5,0.1,0.6,0l1-0.9
										c0.1-0.1,0.1-0.2-0.1-0.4l-3.1-1.7C79.6,68.2,79.4,68.2,79.3,68.3z"/>
									<path class="st12" d="M75.1,66l-1,0.9C74,67,74,67.1,74.2,67.2l3.1,1.7c0.3,0.1,0.5,0.1,0.6,0l1-0.9
										c0.1-0.1,0.1-0.2-0.1-0.4L75.7,66C75.6,66,75.3,66,75.1,66z"/>
									<path class="st12" d="M71.1,63.6l-1,0.9c-0.2,0.1-0.2,0.2,0,0.4l3.1,1.7c0.3,0.1,0.5,0.1,0.6,0l1-0.9
										c0.1-0.1,0.1-0.2-0.1-0.4l-3.1-1.6C71.4,63.6,71.2,63.8,71.1,63.6z"/>
									<path class="st12" d="M65,60.7l-1,0.7c-0.2,0.1-0.1,0.2,0,0.4l4.9,2.7c0.3,0.1,0.5,0.1,0.6,0l1-0.9c0.2-0.1,0.2-0.2,0-0.4
										l-4.8-2.7C65.5,60.4,65.2,60.4,65,60.7z"/>
								</g>
							</g>
							<path class="st6" d="M115.2,51.9l10.6,5.5c-0.1,0.1-0.5,0.1-0.7,0l-9.7-5.1C115.1,52.2,115.1,52.1,115.2,51.9z"/>
							<polygon class="st6" points="65.2,65.5 117.9,94.4 118.3,94.1 65.7,65.1 							"/>
						</g>
						<path class="st13" d="M76.5,47.5L60.2,59.9c-1.2,0.9-1,2.2,0.4,3l62.3,34.2c1.5,0.9,3.4,0.6,4.5-0.4l14.4-14.2L76.5,47.5z"/>
					</g>
				</g>
				<polygon class="st14" points="60.7,59.2 60.7,14.5 108,41.7 69.2,64.1 				"/>
			</g>
		</g>
		<g>
			<path class="st11" d="M64.5,110.7l8.5-4.9c0.5-0.4,0.5-0.9,0-1.1L52.4,92.8c-0.5-0.2-1.4-0.2-1.9,0L42,97.7L64.5,110.7z"/>
			<g>
				<path class="st11" d="M47.6,107.8l10.1,5.8c0.5,0.2,1.4,0.2,1.9,0l4.5-2.7L53,104.5L47.6,107.8z"/>
				<path class="st11" d="M41.7,98l-4.5,2.6c-0.5,0.4-0.5,0.9,0,1.1l10.1,5.8l5.5-3.2L41.7,98z"/>
			</g>
		</g>
	</g>
</g>
<g>
	<g class="st15">
		<g>
			<path class="st5" d="M19.6,74.84l34.44-19.68c0.28-0.16,0.64-0.16,0.92,0l46.81,27.29c0.61,0.36,0.61,1.24,0,1.59l-34.9,20.21
				c-0.29,0.17-0.65,0.16-0.93-0.01L19.58,76.42C18.98,76.06,18.99,75.18,19.6,74.84z"/>
			<path class="st9" d="M19.6,73.32l34.44-19.68c0.28-0.16,0.64-0.16,0.92,0l46.81,27.29c0.61,0.36,0.61,1.24,0,1.59l-34.9,20.21
				c-0.29,0.17-0.65,0.16-0.93-0.01L19.58,74.91C18.98,74.55,18.99,73.67,19.6,73.32z"/>
		</g>
		<g>
			<g>
				<path class="st16" d="M52.36,54.66l0.8-0.4c0.7-0.4,1.8-0.4,2.5,0l5.9,3.5l-0.2,0.6l-3.7,0.1L52.36,54.66z"/>
			</g>
			<g>
				<polygon class="st16" points="71.56,82.46 68.96,83.36 65.76,77.76 70.76,78.76 				"/>
			</g>
			<g>
				<polygon class="st16" points="47.76,78.66 50.96,79.56 41.46,86.96 38.46,85.76 				"/>
			</g>
			<g>
				<path class="st17" d="M26.96,72.96c-0.1-0.1,0-0.1,0.1-0.2c0.1,0,0.3,0,0.4,0.1l1.7,1.8l2.1-0.1l0.4-2.7l-9.68,0.11l0.88-0.5
					l15.2-0.1l0.3-1.8h-1.4h-2.5h-0.5h-2.5h-0.5h-2.5h-2.27l0.86-0.5h5.51v-3.14l0.8-0.45l-0.1,3.49h1.9l2.8-3.2l-0.4-2.7l0.79-0.45
					l0.41,3.15l2.4,0.6l-1.21-4.66l0.7-0.4l1.31,5.26l2,0.5c0.4-0.5,1-1,1.7-1.4l-2.6-2.8l1.37-3.73l1.13-0.67l-0.9,2.5l5.7-2.4
					l-1.1-0.9c-0.1-0.1-0.1-0.1,0.1-0.2c0.1-0.1,0.3,0,0.4,0l1.1,0.9l1.5-0.6l-1.2-0.9c-0.1-0.1-0.1-0.1,0.1-0.2
					c0.1-0.1,0.3,0,0.4,0l1.2,0.9l1.9-0.8l-2.8-1.9l0.6-0.3l5.4,3.7l3.7-0.1l0.05-0.57l1.58,0.9l-4.04,0.07h-1.1l-2.6,2.5l9,1.6l3-1
					l-1.8-0.7c-0.1,0-0.2-0.1,0-0.2c0.1-0.1,0.2-0.1,0.3,0l2,0.8l0.6-0.2l0.6,0.3l-1.9,0.6l-2.4,0.8l-0.6,0.8l-0.3,0.5l-1,1.4
					l-0.8,1.1c0.6,0.7,0.9,1.4,1,2.1l9.07-5.22l0.6,0.3l-3.17,1.82l-0.6,0.4l7,2.1l2.9-1.1l0.6,0.3l-3.4,1.4v0.5l-0.2,2.1v0.6
					l-0.1,1.5l3.5-0.9l1.4-0.4l3.2,0.4l0.39-1.91l0.7,0.4l-0.29,1.61l2.2,0.3l1.71,0.19l1,0.59l-1.31-0.17l0.6,2.8l0.6,2.7l3.2-0.3
					l0.7-0.1l2.5-0.2l1-0.1l0.5-0.1l0.7,0.4l-0.9,0.1l1.1,4.1l2.2,0.2l-0.7,0.4l-7.6-0.5l3.55,2.76l-0.57,0.33l-5.78-4.48l-7.6,1.2
					l0.5,2.2l-3.4,1.5l2.8,0.8l1.8-0.4l0.1-1.7c0,0,0-0.1,0.1-0.1s0.1-0.1,0.2-0.1c0.2,0,0.3,0.1,0.3,0.2l-0.1,1.6l1.1-0.3l0.1-1.7
					c0,0,0-0.1,0.1-0.1s0.1-0.1,0.2-0.1s0.3,0.1,0.3,0.2l-0.1,1.6l3.8-0.8l3.72,1.56l-0.55,0.32l-3.26-1.38l-6.7,1.4l6.49,1.97
					L88.86,90l-5.1-1.54l-4.8-1.4l1.7,3.1l0.4,0.8l1.47,2.7l-0.6,0.36l-3.87-6.95l-5.5,3.2l0.4,1.2l4,0.2l1.8,4.2l-0.7,0.4l-1.7-4.1
					l-3.2-0.1L75.04,98l-0.7,0.4l-2.48-7.94l-3.8-0.2l1.6,6.7l-3.5,3.7l1,1.6c-0.1,0-0.1,0-0.5,0c-0.1,0-0.1,0-0.2,0l-0.3-0.3
					l-0.8,0.42l-0.7-0.4l1.1-0.42l-0.9-1.2l-2.7,0.1l-0.7-0.4l3.2-0.1l-0.4-0.6l-3.8,0.08l-0.5-0.3l3.9-0.28l-0.5-0.7l-5.4-0.22
					l-1.1-0.66l5.8,0.38l-5.9-5.2l-3.8,1.2l0.3,0.9l0.1,0.3l-1.1-0.6l-0.2-0.5l-1.1-0.3l-1.4-0.8l2.3,0.5l-0.4-1.2l-0.5-1.5
					l-0.2-0.5l2.6-2.5l-2-2.5l-0.7,0.4l-2.2,1.4l-0.5,0.4l-0.9,0.6l-0.4,0.2l0.2,3.32l-0.9-0.54l-0.1-2.68l-1.6-0.3l-2-0.3l0,1.06
					l-0.9-0.54l0-0.72l-2.16-0.58l-1.6-0.98l5.26-4.14l-1.6-0.2c-0.2,0-0.3-0.1-0.1-0.3c0.1,0,0.2-0.1,0.3,0l1.9,0.2l1-0.7l-1.7-0.2
					c-0.1,0-0.3-0.1-0.1-0.3c0.1,0,0.2-0.1,0.3,0l1.9,0.2l1-0.7l-1.7-0.2c-0.1,0-0.3-0.1-0.1-0.3c0.1,0,0.2-0.1,0.3,0l2,0.2l1.3-1
					l-3-0.9L35.9,84.7l-0.6-0.36l2.06-1.48l-1.6-1.3c-0.1-0.1-0.1-0.1,0.1-0.2c0.1-0.1,0.3,0,0.4,0l1.5,1.2l1.2-1l-1.7-1.3
					c-0.1-0.1-0.1-0.1,0.1-0.2c0.1-0.1,0.3,0,0.4,0l1.6,1.2l0.7-0.6l0.3-2.6h-4l-4.76,4.06l-0.64-0.26l3.8-3.7h-3.7l-3.6,1.6
					l-0.98-0.71l1.59-0.16l2.49-1.13l0.4-2.7l-7.5,0.5l-0.32,1.48l-0.71-0.43l0.33-1.46l5.6-0.4L26.96,72.96z M61.86,68.46l-3.2,0.5
					l-0.2-0.5l3.2-0.5c-0.4-0.7-1.1-1.4-2-2l-2.3,1.4l-0.6-0.3l2.3-1.4c-1-0.5-2.2-0.9-3.4-1.1l-0.9,1.8l-0.8-0.1l0.9-1.8
					c-1.3-0.1-2.6-0.1-3.9,0l0.8,1.8l-0.8,0.1l-0.8-1.8c-1.2,0.2-2.4,0.6-3.4,1.1l2.3,1.3l-0.6,0.3l-2.3-1.3c-0.9,0.6-1.6,1.2-2,2
					l3.1,0.5v0.5l-3.1-0.5c-0.3,0.8-0.3,1.5,0,2.3l3.2-0.5l0.2,0.5l-3.2,0.5c0.4,0.7,1,1.4,1.9,2l2.3-1.4l0.6,0.3l-2.3,1.4
					c1,0.5,2.2,0.9,3.4,1.1l0.9-1.9l0.8,0.1l-1,1.9c1.3,0.2,2.6,0.2,4,0l-0.9-1.8l0.8-0.1l0.9,1.9c1.3-0.2,2.4-0.6,3.5-1.1l-2.4-1.4
					l0.6-0.3l2.4,1.4c0.9-0.6,1.6-1.3,2-2l-3.3-0.5l0.2-0.5l3.2,0.5C62.16,69.96,62.16,69.26,61.86,68.46 M78.06,86.46l3.4-1.5v-0.2
					l-1.1-4.6l-14.2,4.7l2.5,1.4l6.3,0.1L78.06,86.46 M53.76,87.06l3.3-3.2l-2.7-6.2l-3.4,2.7l-1.6,1.3l0.9,1.1l0.5,0.6l1.4,1.7
					L53.76,87.06 M75.06,70.76l0.1-1.7l-7.2-2.1l-5.1,3c-0.1,0.8-0.4,1.6-1,2.3l0.7,0.2l1.4,0.5l1.1,0.4l1.8-1.8l3.1-0.3l0.3-1.5
					c0,0,0-0.1,0.1-0.1s0.1-0.1,0.2-0.1c0.2,0,0.3,0.1,0.3,0.2l-0.3,1.4l1.9-0.2l0.3-1.5c0,0,0-0.1,0.1-0.1s0.1-0.1,0.2-0.1
					s0.3,0.1,0.2,0.2l-0.3,1.5L75.06,70.76 M51.56,90.06l1.1,3.1l3.8-1.1l0.5-1.2l-2.8,0.8c-0.1,0-0.3,0-0.4-0.1
					c-0.1-0.1,0-0.1,0.1-0.2c0,0,0,0,0.1,0l3.2-0.9l0.5-1.2l-2.8,0.8c-0.1,0-0.3,0-0.4-0.1c-0.1-0.1,0-0.1,0.1-0.2c0,0,0,0,0.1,0
					l3.2-0.9l1.6-3.6l-1.8-1l-0.7,0.6l-1.4,1.3l-0.6,0.5l-1,1.1L51.56,90.06 M60.26,94.76l0.5,0.4l1.1,0.9l0.4,0.4l1.3,1.1l1.4-1.6
					l2.6-3l-0.6-2.7l-5.4-0.3l-0.3,0.4l3.1,0.5c0.1,0,0.2,0.1,0.2,0.2c0,0,0,0.1-0.1,0.1s-0.2,0.1-0.3,0l-3.2-0.6l-0.5,0.6l3.2,0.5
					c0.1,0,0.2,0.1,0.2,0.2c0,0,0,0.1-0.1,0.1s-0.2,0.1-0.3,0l-3.3-0.5l-0.1,0.1l-2.8,0.8l0.9,0.8L60.26,94.76 M60.66,80.46
					l-1.4,0.8c-0.1,0.1-0.3,0.1-0.4,0c-0.1-0.1-0.1-0.2,0-0.2l1.7-1l-0.6-1.1l-1.8,1c-0.1,0.1-0.3,0.1-0.4,0c-0.1-0.1-0.1-0.2,0-0.2
					l2.1-1.2l-0.4-0.8l-3.4,1.6l1.9,4.3l5.3,3l1.6-1.9l-3.1-1.7L60.66,80.46 M64.76,77.56l-5-1l1.9,4.4l0.8,1.9l0.1,0.1l2.8,1.6
					l2.8-0.9L64.76,77.56 M70.86,75.46l0.5,2.1l0.2,0.8l2.4-0.4l1.1-0.2l3.4-0.5l2.8-0.4l-1-3.9L70.86,75.46 M66.16,75.26l1.8,2.5
					l2.7,0.5l-0.7-2.8l-8.5-2.9c-0.4,0.4-0.9,0.8-1.5,1.1c-0.4,0.2-0.8,0.4-1.2,0.6l0.8,1.8l1.1,0.2l3,0.6l3.5,0.7l-1.6-2.2
					c-0.1-0.1,0-0.1,0.1-0.2h0.1C65.86,75.06,66.06,75.16,66.16,75.26 M89.06,81.36l-0.4-1.8l-6.9-4l0.9,3.7l-1.6,0.6l0.6,2.6
					L89.06,81.36 M38.46,85.76l3.1,1.1l9.5-7.4l-3.2-0.9L38.46,85.76 M71.66,79.26l2.3-0.2c0.1,0,0.3,0,0.3,0.1s0,0.1-0.1,0.1
					s-0.1,0-0.2,0l-2.3,0.2l0.2,1l2.4-0.3c0.1,0,0.3,0,0.3,0.1s0,0.1-0.1,0.1h-0.1l-2.5,0.4l0.3,1.3l9.4-3.1l-0.4-1.8l-9.8,1.5
					L71.66,79.26 M61.46,66.56l2.3-3.3l-8.9-1.6l-2.2,2.2c2.7-0.1,5.4,0.5,7.4,1.7C60.56,65.86,61.06,66.16,61.46,66.56
					 M54.66,60.96l2.4-2.4l-0.7-0.4l-1.3-0.9l-3.3,1.4l-0.7,0.3l0,0l0,0h-0.1l-1.8,0.8l0.5,4.5c0.7-0.1,1.3-0.2,2-0.3l0.8-0.8
					L54.66,60.96 M66.96,89.76l4.5,0.3l-0.5-1.8l-5.4-3l-3.6,4.2l1.6,0.1L66.96,89.76 M31.46,77.36l4.1-2l1.7-0.8l0.4-2.8h-5.5
					l-0.1,0.8l-0.2,1.5l-0.1,0.9L31.46,77.36 M97.36,83.06l-1.1-4l-1.4,0.1l0.4,1.6c0,0.1,0,0.1-0.1,0.1h-0.1c-0.1,0-0.3,0-0.3-0.1
					l-0.4-1.6l-1.1,0.1l0.4,1.6c0,0.1,0,0.1-0.1,0.1l-0.1,0.1c-0.1,0-0.3,0-0.3-0.1l-0.4-1.6l-1.4,0.1l0.4,1.6c0,0.1,0,0.1-0.1,0.1
					h-0.1c-0.1,0-0.3,0-0.3-0.1l-0.4-1.6l-1.2,0.1l0.4,1.8l1.5,1.2L97.36,83.06 M75.06,71.26l-7.7,0.6l-1.6,1.6l1.4,0.5l3.1,1.1
					l3-0.8l1.5-0.4L75.06,71.26 M51.46,79.16l2.7-2.1l-0.7-1.7c-2,0.1-4.1-0.2-5.9-0.9l-3.1,2.7L51.46,79.16 M87.36,73.66l-6.2-0.8
					l0.5,1.9l6.9,4L87.36,73.66 M70.76,78.76l-5-1l3.2,5.6l2.6-0.9L70.76,78.76 M62.86,87.16l-2.8-1.6l-2.7,6.2l2.1-0.6L62.86,87.16
					 M63.96,98.06l1.5,2l3.1-3.3l-0.7-3.1L63.96,98.06 M45.96,87.66l4.9-3.2l-2-2.5l-6.5,5.1L45.96,87.66 M38.46,72.36l-0.3,1.9
					l3.1-1.4l2.4-1.1c-0.4-0.6-0.6-1.3-0.6-2h-4.1L38.46,72.36 M41.16,66.86l-2.7-0.7l-0.8,0.9l-1.8,2l7.1,0.1
					c0.1-0.6,0.3-1.1,0.7-1.7L41.16,66.86 M44.36,61.76l-0.4,1.1l0.4,0.4l2,2c0.3-0.1,0.6-0.3,0.9-0.4c0.5-0.2,1-0.4,1.5-0.5
					l-0.5-4.3L44.36,61.76 M39.76,77.76l0.3-2.5l-2.3-0.3l-5.7,2.7L39.76,77.76 M40.26,79.96l4.8-4.2l-4.2-0.5L40.26,79.96
					 M43.96,72.06l-5.4,2.5l7,0.8l1.4-1.2c-0.3-0.1-0.7-0.3-1-0.5C45.06,73.26,44.46,72.66,43.96,72.06 M77.26,86.96l-7.8-0.2
					l2.3,1.3l0.6,1.8L77.26,86.96 M59.26,77.26l-1.2-2.7c-1.2,0.4-2.5,0.7-3.8,0.8l1.6,3.6L59.26,77.26"/>
			</g>
			<g>
				<polygon class="st18" points="23.13,77.04 23.13,78.55 22.42,78.13 22.42,76.61 				"/>
			</g>
			<g>
				<polygon class="st16" points="88.46,78.76 81.56,74.76 81.06,72.86 87.36,73.66 				"/>
			</g>
			<g>
				<polygon class="st18" points="27.5,79.8 27.46,81.15 26.38,80.5 26.47,79.04 				"/>
			</g>
			<g>
				<polygon class="st16" points="34.76,78.16 30.96,81.86 27.46,79.76 31.06,78.16 				"/>
			</g>
			<g>
				<polygon class="st19" points="31,81.86 31.01,83.28 27.46,81.15 27.46,79.76 				"/>
			</g>
			<g>
				<polygon class="st18" points="31.6,82.12 31.6,83.63 31.01,83.28 31,81.86 				"/>
			</g>
			<path class="st20" d="M101.86,82.46l-1.5,0.8v1.6l1.5-0.9c0.3-0.2,0.5-0.4,0.5-0.7v-1.5C102.36,81.96,102.16,82.26,101.86,82.46z
				"/>
			<g>
				<path class="st16" d="M98.26,78.86l3.6,2.1c0.7,0.4,0.7,1.1,0,1.5l-1.4,0.8l-2.2-0.2l-1.1-4.1L98.26,78.86z"/>
			</g>
			<g>
				<polygon class="st21" points="100.55,83.25 100.55,84.75 99.85,85.15 99.85,83.65 				"/>
			</g>
			<g>
				<polygon class="st18" points="35.9,84.7 35.9,86.21 35.3,85.85 35.3,84.34 				"/>
			</g>
			<g>
				<polygon class="st21" points="95.9,85.91 95.94,87.41 95.34,87.76 95.34,86.24 				"/>
			</g>
			<g>
				<polygon class="st18" points="39.2,86.68 39.2,88.19 37.6,87.23 37.6,85.7 				"/>
			</g>
			<g>
				<polygon class="st21" points="93.47,87.32 93.56,88.79 92.96,89.14 92.92,87.64 				"/>
			</g>
			<g>
				<polygon class="st18" points="42.26,88.51 42.26,90.03 41.34,89.48 41.36,87.97 				"/>
			</g>
			<g>
				<polygon class="st21" points="89.45,89.62 89.46,91.16 88.86,91.5 88.86,90 				"/>
			</g>
			<g>
				<polygon class="st18" points="46.86,91.27 46.86,92.79 46.06,92.31 45.96,90.73 				"/>
			</g>
			<g>
				<polygon class="st21" points="82.53,93.65 82.53,95.18 81.93,95.52 81.93,94.01 				"/>
			</g>
			<polygon class="st21" points="78.77,95.86 78.81,97.33 78.12,97.73 78.06,96.26 			"/>
			<polygon class="st18" points="57.96,97.93 57.96,99.47 56.86,98.77 56.86,97.27 			"/>
			<polygon class="st21" points="75.04,98 75.04,99.51 74.34,99.92 74.34,98.4 			"/>
			<polygon class="st22" points="60.46,99.43 60.46,100.95 59.96,100.65 59.96,99.13 			"/>
			<polygon class="st18" points="62.16,100.46 62.16,101.96 61.46,101.56 61.46,100.06 			"/>
			<polygon class="st18" points="65.36,102.37 65.36,103.89 64.66,103.47 64.66,101.97 			"/>
			<path class="st23" d="M67.19,102.54l0.03,1.5c0.2-0.11,7.11-4.12,7.11-4.12V98.4C74.34,98.4,67.24,102.52,67.19,102.54z"/>
			<g>
				<path class="st16" d="M67.19,102.54l-1.44-1.88l3.5-3.7l-1.6-6.7l4.2,0.2l2.48,7.94C74.34,98.4,67.29,102.54,67.19,102.54z"/>
			</g>
		</g>
	</g>
	<g>
		<g>
			<g class="st15">
				<g>
					<polygon class="st24" points="78.8,59.1 78.8,76.2 72.7,72.6 72.7,55.6 					"/>
				</g>
				<g>
					<polygon class="st25" points="84.9,55.6 84.9,72.6 78.8,76.2 78.8,59.1 					"/>
				</g>
				<g>
					<polygon class="st24" points="78.8,52 84.9,55.6 78.8,59.1 72.7,55.6 					"/>
				</g>
			</g>
		</g>
	</g>
	<g>
		<g>
			<g class="st15">
				<g>
					<polygon class="st24" points="55.3,41.7 55.3,63.5 49.2,60 49.2,38.1 					"/>
				</g>
				<g>
					<polygon class="st25" points="61.4,38.1 61.5,60 55.3,63.5 55.3,41.7 					"/>
				</g>
				<g>
					<polygon class="st24" points="55.3,34.6 61.4,38.1 55.3,41.7 49.2,38.1 					"/>
				</g>
			</g>
		</g>
	</g>
	<g>
		<g>
			<g class="st15">
				<g>
					<polygon class="st24" points="53.7,84.5 53.7,96.2 47.6,92.6 47.6,81 					"/>
				</g>
				<g>
					<polygon class="st25" points="59.9,81 59.9,92.6 53.7,96.2 53.7,84.5 					"/>
				</g>
				<g>
					<polygon class="st24" points="53.8,77.4 59.9,81 53.7,84.5 47.6,81 					"/>
				</g>
			</g>
		</g>
	</g>
	<g>
		<path class="st26" d="M74.7,82.06c-0.32-0.16-0.5-0.26-0.79-0.26l-0.11,0.03l-0.87,0.23l0.25,0.11c-0.19,0.22-0.61,0.46-0.61,0.9
			c0,0.5,1.22,3.87,1.22,3.87l0.3,1.16l0.6-0.14l1.5-1.6c0.3-0.3,0.4-0.6,0.4-1.1C76.6,84.16,75.8,82.66,74.7,82.06z"/>
		<path class="st27" d="M76,85.4c0,0.5-0.1,0.8-0.4,1.1l-1.5,1.6l-1.4-3.3c-0.2-0.5-0.4-1-0.4-1.5c0-1.2,0.8-1.6,1.8-1.1
			C75.2,82.8,76,84.3,76,85.4z M74.2,85.7c0.6,0.4,1.2,0.1,1.2-0.7c0-0.8-0.5-1.6-1.2-2S73,82.9,73,83.7
			C73,84.4,73.5,85.3,74.2,85.7"/>
		<path class="st28" d="M75.4,85c0,0.7-0.5,1.16-1.3,0.7c-0.6-0.4-1.2-1.3-1.2-2s0.5-1.05,1.2-0.75C74.8,83.35,75.4,84.1,75.4,85z
			 M73.4,84.4L73.4,84.4L73.4,84.4c0-0.1,0.1-0.2,0.1-0.2h0.1c0.1,0,0.1,0.1,0.1,0.1s0.1,0.1,0.1,0.2v0.1l0.5,0.3v-1.1l-1-0.6v1.2
			 M74.4,84.8c0-0.1,0.1-0.1,0.2-0.1s0.1,0.1,0.1,0.1c0,0.1,0.1,0.1,0.1,0.2v0.1l0.1,0.1v-0.5c0-0.1,0-0.1-0.1-0.1l0,0l-0.1-0.3
			c0,0,0-0.1-0.1-0.1l-0.2-0.1V84.8 M73.5,84.6c0,0.1,0.1,0.1,0.1,0.1h0.1l0.1-0.1c0,0,0-0.1-0.1-0.2c0-0.1-0.1-0.1-0.1-0.1h-0.1
			l-0.1,0.1C73.4,84.4,73.5,84.5,73.5,84.6 M74.5,85.1c0,0.1,0.1,0.1,0.1,0.1h0.1l0.1-0.1c0,0,0-0.1-0.1-0.2c0-0.1-0.1-0.1-0.1-0.1
			h-0.1l-0.1,0.1C74.4,85,74.4,85.1,74.5,85.1"/>
	</g>
	<g>
		<path class="st26" d="M67.7,57.16c-0.32-0.16-0.5-0.26-0.79-0.26l-0.11,0.03l-0.87,0.23l0.25,0.11c-0.19,0.22-0.61,0.46-0.61,0.9
			c0,0.5,1.22,3.87,1.22,3.87l0.3,1.16l0.6-0.14l1.5-1.6c0.3-0.3,0.4-0.6,0.4-1.1C69.6,59.26,68.8,57.76,67.7,57.16z"/>
		<path class="st27" d="M69,60.51c0,0.5-0.1,0.8-0.4,1.1l-1.5,1.6l-1.4-3.3c-0.2-0.5-0.4-1-0.4-1.5c0-1.2,0.8-1.6,1.8-1.1
			C68.2,57.91,69,59.41,69,60.51z M67.2,60.81c0.6,0.4,1.2,0.1,1.2-0.7c0-0.8-0.5-1.6-1.2-2s-1.2-0.1-1.2,0.7
			C66,59.51,66.5,60.41,67.2,60.81"/>
		<path class="st28" d="M68.4,60.11c0,0.7-0.5,1.16-1.3,0.7c-0.6-0.4-1.2-1.3-1.2-2s0.5-1.05,1.2-0.75
			C67.8,58.45,68.4,59.21,68.4,60.11z M66.4,59.51L66.4,59.51L66.4,59.51c0-0.1,0.1-0.2,0.1-0.2h0.1c0.1,0,0.1,0.1,0.1,0.1
			s0.1,0.1,0.1,0.2v0.1l0.5,0.3v-1.1l-1-0.6v1.2 M67.4,59.91c0-0.1,0.1-0.1,0.2-0.1s0.1,0.1,0.1,0.1c0,0.1,0.1,0.1,0.1,0.2v0.1
			l0.1,0.1v-0.5c0-0.1,0-0.1-0.1-0.1l0,0l-0.1-0.3c0,0,0-0.1-0.1-0.1l-0.2-0.1V59.91 M66.5,59.71c0,0.1,0.1,0.1,0.1,0.1h0.1l0.1-0.1
			c0,0,0-0.1-0.1-0.2c0-0.1-0.1-0.1-0.1-0.1h-0.1l-0.1,0.1C66.4,59.51,66.5,59.61,66.5,59.71 M67.5,60.21c0,0.1,0.1,0.1,0.1,0.1h0.1
			l0.1-0.1c0,0,0-0.1-0.1-0.2c0-0.1-0.1-0.1-0.1-0.1h-0.1l-0.1,0.1C67.4,60.11,67.4,60.21,67.5,60.21"/>
	</g>
	<g>
		<path class="st26" d="M37.91,70.13c-0.32-0.16-0.5-0.26-0.79-0.26l-0.11,0.03l-0.87,0.23l0.25,0.11c-0.19,0.22-0.61,0.46-0.61,0.9
			c0,0.5,1.22,3.87,1.22,3.87l0.3,1.16l0.6-0.14l1.5-1.6c0.3-0.3,0.4-0.6,0.4-1.1C39.81,72.23,39.01,70.73,37.91,70.13z"/>
		<path class="st27" d="M39.21,73.47c0,0.5-0.1,0.8-0.4,1.1l-1.5,1.6l-1.4-3.3c-0.2-0.5-0.4-1-0.4-1.5c0-1.2,0.8-1.6,1.8-1.1
			C38.41,70.87,39.21,72.37,39.21,73.47z M37.41,73.77c0.6,0.4,1.2,0.1,1.2-0.7c0-0.8-0.5-1.6-1.2-2s-1.2-0.1-1.2,0.7
			C36.21,72.47,36.71,73.37,37.41,73.77"/>
		<path class="st28" d="M38.61,73.07c0,0.7-0.5,1.16-1.3,0.7c-0.6-0.4-1.2-1.3-1.2-2s0.5-1.05,1.2-0.75
			C38.01,71.42,38.61,72.17,38.61,73.07z M36.61,72.47L36.61,72.47L36.61,72.47c0-0.1,0.1-0.2,0.1-0.2h0.1c0.1,0,0.1,0.1,0.1,0.1
			s0.1,0.1,0.1,0.2v0.1l0.5,0.3v-1.1l-1-0.6v1.2 M37.61,72.87c0-0.1,0.1-0.1,0.2-0.1s0.1,0.1,0.1,0.1c0,0.1,0.1,0.1,0.1,0.2v0.1
			l0.1,0.1v-0.5c0-0.1,0-0.1-0.1-0.1l0,0l-0.1-0.3c0,0,0-0.1-0.1-0.1l-0.2-0.1V72.87 M36.71,72.67c0,0.1,0.1,0.1,0.1,0.1h0.1
			l0.1-0.1c0,0,0-0.1-0.1-0.2c0-0.1-0.1-0.1-0.1-0.1h-0.1l-0.1,0.1C36.61,72.47,36.71,72.57,36.71,72.67 M37.71,73.17
			c0,0.1,0.1,0.1,0.1,0.1h0.1l0.1-0.1c0,0,0-0.1-0.1-0.2c0-0.1-0.1-0.1-0.1-0.1h-0.1l-0.1,0.1C37.61,73.07,37.61,73.17,37.71,73.17"
			/>
	</g>
</g>
</svg>
